<svg width="28" height="28" viewBox="0 0 28 28" fill="none" xmlns="http://www.w3.org/2000/svg">
<rect width="28" height="28" rx="14" fill="#4FF8D2"/>
<path d="M20.9986 11.4027C20.6717 9.4469 18.9574 8 18.9574 8V10.1546L17.9396 10.4171L17.3019 9.6492L16.9652 10.3114C16.2708 10.1224 15.3146 10.0006 13.9993 10.0006C12.684 10.0006 11.7278 10.1231 11.0334 10.3114L10.6967 9.6492L10.059 10.4171L9.0412 10.1546V8C9.0412 8 7.3269 9.4469 7 11.4027L9.2498 12.1811C9.3233 13.5412 9.9351 17.2127 10.1101 17.5459C10.2963 17.9008 11.2847 18.9151 12.0582 19.305C12.0582 19.305 12.3382 19.0089 12.509 18.7478C12.726 19.0033 13.8467 19.8993 14 19.8993C14.1533 19.8993 15.274 19.004 15.491 18.7478C15.6618 19.0089 15.9418 19.305 15.9418 19.305C16.7153 18.9151 17.7037 17.9008 17.8899 17.5459C18.0649 17.2127 18.6767 13.5412 18.7502 12.1811L21 11.4027H20.9986ZM17.7653 14.5345L16.2428 14.6703L16.3765 16.5372C16.3765 16.5372 15.4504 17.3037 13.9993 17.3037C12.5482 17.3037 11.6221 16.5372 11.6221 16.5372L11.7558 14.6703L10.2333 14.5345L9.9729 12.4317L12.4964 13.3053L12.3004 15.9226C12.7694 16.0416 13.2629 16.1599 14 16.1599C14.7371 16.1599 15.2299 16.0416 15.6989 15.9226L15.5029 13.3053L18.0264 12.4317L17.766 14.5345H17.7653Z" fill="black"/>
</svg>
